<svg xmlns="http://www.w3.org/2000/svg" width="25" height="25" viewBox="0 0 25 25">
  <g id="Group_523" data-name="Group 523" transform="translate(1 1)" style="mix-blend-mode: normal;isolation: isolate">
    <path id="Vector" d="M2.5,5A2.5,2.5,0,1,1,5,2.5,2.5,2.5,0,0,1,2.5,5Z" transform="translate(9 9)" fill="none" stroke="rgba(255,255,255,0.8)" stroke-linecap="round" stroke-linejoin="round" stroke-width="2" style="mix-blend-mode: normal;isolation: isolate"/>
    <path id="Vector-2" data-name="Vector" d="M19.117,15.641a1.724,1.724,0,0,0,.464.9l.063.063a2.092,2.092,0,1,1-2.959,2.959l-.063-.063a1.737,1.737,0,0,0-2.948,1.234v.178a2.091,2.091,0,1,1-4.182,0v-.094a1.725,1.725,0,0,0-1.129-1.579,1.725,1.725,0,0,0-1.9.345l-.063.063A2.092,2.092,0,1,1,3.44,16.685l.063-.063a1.737,1.737,0,0,0-1.234-2.948H2.091a2.091,2.091,0,1,1,0-4.182h.094A1.725,1.725,0,0,0,3.764,8.364a1.725,1.725,0,0,0-.345-1.9L3.356,6.4A2.092,2.092,0,1,1,6.315,3.44l.063.063a1.725,1.725,0,0,0,1.9.345h.084A1.725,1.725,0,0,0,9.409,2.269V2.091a2.091,2.091,0,1,1,4.182,0v.094a1.736,1.736,0,0,0,2.948,1.234l.063-.063A2.092,2.092,0,1,1,19.56,6.315l-.063.063a1.725,1.725,0,0,0-.345,1.9v.084a1.725,1.725,0,0,0,1.579,1.045h.178a2.091,2.091,0,1,1,0,4.182h-.094a1.745,1.745,0,0,0-1.7,2.05Z" fill="none" stroke="rgba(255,255,255,0.8)" stroke-linecap="round" stroke-linejoin="round" stroke-width="2" style="mix-blend-mode: normal;isolation: isolate"/>
  </g>
</svg>
