<svg xmlns="http://www.w3.org/2000/svg" width="23.067" height="21" viewBox="0 0 23.067 21">
  <path id="Vector" d="M19.775,19.952a1.083,1.083,0,0,1-.272.736.83.83,0,0,1-.644.311H13.365V14.715H9.7V21H4.208a.83.83,0,0,1-.644-.311,1.082,1.082,0,0,1-.272-.736V12.1a.254.254,0,0,1,.007-.049A.254.254,0,0,0,3.307,12l8.227-7.758L19.76,12a.256.256,0,0,1,.014.1Zm2.3-7.775a.472.472,0,0,1-.3.18h-.043a.406.406,0,0,1-.3-.115L11.534,2.8l-9.9,9.444a.485.485,0,0,1-.343.115.472.472,0,0,1-.3-.18L.1,10.967a.585.585,0,0,1-.1-.385.5.5,0,0,1,.157-.352L10.446.426a1.6,1.6,0,0,1,2.175,0l3.491,3.339V.573A.551.551,0,0,1,16.241.2.418.418,0,0,1,16.57.049h2.747A.418.418,0,0,1,19.646.2a.551.551,0,0,1,.129.376V7.251l3.133,2.979a.5.5,0,0,1,.157.352.585.585,0,0,1-.1.385Z" fill="#fff" style="mix-blend-mode: normal;isolation: isolate"/>
</svg>
